<svg width="19" height="16" viewBox="0 0 19 16" fill="none" xmlns="http://www.w3.org/2000/svg">
<path d="M18.0687 3.05166C17.9669 2.91219 17.8031 2.82598 17.6251 2.81871L6.59026 2.36415C6.27365 2.35091 6.00907 2.58451 5.99553 2.88567C5.98208 3.18672 6.22611 3.44109 6.54121 3.45403L16.8289 3.87785L14.8062 9.90928H5.80453L4.17825 1.44689C4.1425 1.26142 4.00926 1.10669 3.82549 1.03779L1.16193 0.037775C0.868369 -0.072061 0.53711 0.065738 0.42182 0.34594C0.306729 0.626293 0.450881 0.943056 0.744281 1.05323L3.11262 1.94238L4.7676 10.5533C4.81748 10.8122 5.05355 11.0002 5.32908 11.0002H5.60361L4.97672 12.6643C4.92425 12.8037 4.94587 12.9585 5.03516 13.0796C5.12433 13.2007 5.26936 13.2728 5.42418 13.2728H5.86388C5.59142 13.5625 5.42418 13.9441 5.42418 14.3637C5.42418 15.2661 6.19247 16.0001 7.13649 16.0001C8.0805 16.0001 8.8488 15.2661 8.8488 14.3637C8.8488 13.9441 8.68155 13.5625 8.40913 13.2728H12.1424C11.8698 13.5625 11.7026 13.9441 11.7026 14.3637C11.7026 15.2661 12.4707 16.0001 13.4149 16.0001C14.3592 16.0001 15.1272 15.2661 15.1272 14.3637C15.1272 13.9441 14.96 13.5625 14.6876 13.2728H15.2224C15.4851 13.2728 15.698 13.0693 15.698 12.8182C15.698 12.5671 15.4851 12.3637 15.2224 12.3637H6.10095L6.61458 11H15.2223C15.4705 11 15.6902 10.8468 15.7658 10.6211L18.144 3.53C18.1986 3.36816 18.1706 3.19121 18.0687 3.05166ZM7.13653 15.0912C6.71681 15.0912 6.37548 14.765 6.37548 14.3639C6.37548 13.9628 6.71681 13.6366 7.13653 13.6366C7.55625 13.6366 7.89754 13.9628 7.89754 14.3639C7.89754 14.765 7.55625 15.0912 7.13653 15.0912ZM13.4149 15.0912C12.9952 15.0912 12.6539 14.765 12.6539 14.3639C12.6539 13.9628 12.9952 13.6366 13.4149 13.6366C13.8346 13.6366 14.1759 13.9628 14.1759 14.3639C14.1759 14.765 13.8346 15.0912 13.4149 15.0912Z" fill="#1B1A17"/>
</svg>
