<svg width="21" height="18" viewBox="0 0 21 18" fill="none" xmlns="http://www.w3.org/2000/svg">
<path d="M19.6206 5.77107C19.3465 3.00626 17.2111 1.00033 14.5388 1.00033C12.7584 1.00033 11.1283 1.87836 10.211 3.28559C9.30206 1.86016 7.73874 1 5.98691 1C3.31492 1 1.17921 3.00593 0.905478 5.77074C0.88381 5.89286 0.794973 6.53558 1.0651 7.58372C1.45439 9.09553 2.3536 10.4707 3.66486 11.5595L10.2067 17.0001L16.8608 11.5598C18.1721 10.4707 19.0713 9.09586 19.4606 7.58372C19.7307 6.53591 19.6419 5.89319 19.6206 5.77107ZM18.7575 7.43214C18.4021 8.81289 17.5784 10.0709 16.3776 11.0677L10.211 16.1098L4.15021 11.069C2.9473 10.0702 2.12392 8.81256 1.76821 7.43181C1.51253 6.43993 1.61762 5.87962 1.61798 5.87598L1.6234 5.84256C1.85813 3.42028 3.69302 1.66191 5.98691 1.66191C7.67952 1.66191 9.16953 2.61507 9.87662 4.14905L10.2092 4.87153L10.5418 4.14905C11.2377 2.63857 12.8065 1.66224 14.5391 1.66224C16.8327 1.66224 18.6679 3.42062 18.9073 5.87433C18.9081 5.87962 19.0132 6.44026 18.7575 7.43214Z" fill="#1B1A17" stroke="#1B1A17" stroke-width="0.75"/>
</svg>
