<svg width="24" height="24" viewBox="0 0 24 24" fill="none" xmlns="http://www.w3.org/2000/svg">
<path d="M7.38161 0.67334C3.75937 0.67334 0.813721 3.63873 0.813721 7.28325V16.8407C0.813721 20.4852 3.75937 23.449 7.38161 23.449H16.9376C20.5598 23.449 23.5055 20.4852 23.5055 16.8407V7.28325C23.5055 3.63873 20.5598 0.67334 16.9376 0.67334H7.38161ZM7.38161 2.6313H16.9376C19.5156 2.6313 21.5611 4.68941 21.5611 7.28325V16.8407C21.5611 19.4345 19.5156 21.491 16.9376 21.491H7.38161C4.80361 21.491 2.7597 19.4345 2.7597 16.8407V7.28325C2.7597 4.68941 4.80361 2.6313 7.38161 2.6313ZM18.2496 4.58924C17.4979 4.58924 16.8888 5.20201 16.8888 5.95832C16.8888 6.71466 17.4979 7.32741 18.2496 7.32741C19.0013 7.32741 19.6103 6.71466 19.6103 5.95832C19.6103 5.20201 19.0013 4.58924 18.2496 4.58924ZM12.1596 6.19713C8.95211 6.19713 6.33141 8.83395 6.33141 12.0612C6.33141 15.2884 8.95211 17.9252 12.1596 17.9252C15.3671 17.9252 17.9895 15.2884 17.9895 12.0612C17.9895 8.83395 15.3671 6.19713 12.1596 6.19713ZM12.1596 8.15509C14.3156 8.15509 16.0434 9.89192 16.0434 12.0612C16.0434 14.2304 14.3156 15.9672 12.1596 15.9672C10.0036 15.9672 8.27739 14.2304 8.27739 12.0612C8.27739 9.89192 10.0036 8.15509 12.1596 8.15509Z" fill="#5C5C50"/>
</svg>
