<svg width="100" height="14" viewBox="0 0 100 14" fill="none" xmlns="http://www.w3.org/2000/svg">
<path d="M12 11.6C13.6212 8.49362 17.1981 2.98664 18.5362 5.80966" stroke="#BCAB84"/>
<path d="M1.53481 11.8283C2.89578 8.59942 6.00901 2.81765 7.57414 5.52142" stroke="#BCAB84"/>
<circle cx="3" cy="10" r="3" fill="#BCAB84"/>
<circle cx="11" cy="10" r="3" fill="#BCAB84"/>
<circle cx="11" cy="10" r="2" fill="white"/>
<circle cx="3" cy="10" r="2" fill="white"/>
<line x1="5" y1="10.5" x2="9" y2="10.5" stroke="#BCAB84"/>
<path d="M26.1961 4.33624C26.7161 4.33624 27.1361 4.41624 27.4561 4.57624C27.7761 4.72824 28.0761 4.90824 28.3561 5.11624C28.4601 5.19624 28.5401 5.23624 28.5961 5.23624C28.7481 5.23624 28.8481 4.99224 28.8961 4.50424H29.1721C29.1561 4.80024 29.1441 5.16024 29.1361 5.58424C29.1281 6.00824 29.1241 6.56824 29.1241 7.26424H28.8481C28.7921 6.92824 28.7241 6.60424 28.6441 6.29224C28.5641 5.98024 28.4321 5.71224 28.2481 5.48824C28.0161 5.19224 27.7121 4.96424 27.3361 4.80424C26.9601 4.63624 26.5721 4.55224 26.1721 4.55224C25.7721 4.55224 25.4081 4.65224 25.0801 4.85224C24.7601 5.04424 24.4841 5.32424 24.2521 5.69224C24.0201 6.06024 23.8401 6.50424 23.7121 7.02424C23.5921 7.53624 23.5321 8.11624 23.5321 8.76424C23.5321 10.2042 23.7641 11.2602 24.2281 11.9322C24.6921 12.5962 25.4121 12.9282 26.3881 12.9282C26.6761 12.9282 26.9241 12.8882 27.1321 12.8082C27.3481 12.7202 27.5161 12.6362 27.6361 12.5562C27.7881 12.4522 27.8841 12.3562 27.9241 12.2682C27.9641 12.1722 27.9841 12.0482 27.9841 11.8962V10.7442C27.9841 10.4162 27.9521 10.1722 27.8881 10.0122C27.8241 9.85224 27.7041 9.74424 27.5281 9.68824C27.3601 9.63224 27.1081 9.60024 26.7721 9.59224V9.35224C26.9161 9.36024 27.0841 9.36824 27.2761 9.37624C27.4681 9.37624 27.6681 9.38024 27.8761 9.38824C28.0921 9.38824 28.2881 9.38824 28.4641 9.38824C28.7281 9.38824 28.9641 9.38424 29.1721 9.37624C29.3881 9.36824 29.5681 9.36024 29.7121 9.35224V9.59224C29.5361 9.60024 29.4041 9.62824 29.3161 9.67624C29.2281 9.72424 29.1681 9.82024 29.1361 9.96424C29.1121 10.1082 29.1001 10.3282 29.1001 10.6242V13.0002H28.8601C28.8521 12.8642 28.8201 12.7162 28.7641 12.5562C28.7161 12.3962 28.6401 12.3162 28.5361 12.3162C28.4881 12.3162 28.4401 12.3282 28.3921 12.3522C28.3441 12.3762 28.2601 12.4322 28.1401 12.5202C27.8761 12.7202 27.5961 12.8802 27.3001 13.0002C27.0041 13.1122 26.6601 13.1682 26.2681 13.1682C25.4441 13.1682 24.7361 13.0002 24.1441 12.6642C23.5601 12.3202 23.1121 11.8282 22.8001 11.1882C22.4881 10.5482 22.3321 9.78424 22.3321 8.89624C22.3321 7.96024 22.5001 7.15224 22.8361 6.47224C23.1721 5.79224 23.6281 5.26824 24.2041 4.90024C24.7881 4.52424 25.4521 4.33624 26.1961 4.33624ZM35.3656 4.50424V4.74424C35.0936 4.75224 34.8856 4.78424 34.7416 4.84024C34.6056 4.88824 34.5136 4.98424 34.4656 5.12824C34.4176 5.26424 34.3936 5.48024 34.3936 5.77624V11.7282C34.3936 12.0162 34.4176 12.2322 34.4656 12.3762C34.5136 12.5202 34.6056 12.6162 34.7416 12.6642C34.8856 12.7042 35.0936 12.7242 35.3656 12.7242H36.2416C36.6176 12.7242 36.9216 12.6842 37.1536 12.6042C37.3936 12.5242 37.5816 12.4002 37.7176 12.2322C37.8616 12.0562 37.9696 11.8242 38.0416 11.5362C38.1136 11.2482 38.1696 10.8962 38.2096 10.4802H38.4856C38.4616 10.7282 38.4496 11.0562 38.4496 11.4642C38.4496 11.6162 38.4536 11.8362 38.4616 12.1242C38.4776 12.4042 38.5016 12.6962 38.5336 13.0002C38.1256 12.9842 37.6656 12.9762 37.1536 12.9762C36.6416 12.9682 36.1856 12.9642 35.7856 12.9642C35.6096 12.9642 35.3816 12.9642 35.1016 12.9642C34.8296 12.9642 34.5336 12.9682 34.2136 12.9762C33.8936 12.9762 33.5696 12.9802 33.2416 12.9882C32.9136 12.9882 32.6016 12.9922 32.3056 13.0002V12.7602C32.5776 12.7442 32.7816 12.7122 32.9176 12.6642C33.0616 12.6162 33.1576 12.5202 33.2056 12.3762C33.2536 12.2322 33.2776 12.0162 33.2776 11.7282V5.77624C33.2776 5.48024 33.2536 5.26424 33.2056 5.12824C33.1576 4.98424 33.0616 4.88824 32.9176 4.84024C32.7816 4.78424 32.5776 4.75224 32.3056 4.74424V4.50424C32.4736 4.51224 32.6936 4.52024 32.9656 4.52824C33.2376 4.53624 33.5296 4.54024 33.8416 4.54024C34.1216 4.54024 34.3976 4.53624 34.6696 4.52824C34.9496 4.52024 35.1816 4.51224 35.3656 4.50424ZM44.4123 4.44424L47.3403 11.9922C47.4603 12.2962 47.5963 12.5002 47.7483 12.6042C47.9003 12.7002 48.0403 12.7522 48.1683 12.7602V13.0002C48.0083 12.9842 47.8123 12.9762 47.5803 12.9762C47.3483 12.9682 47.1163 12.9642 46.8843 12.9642C46.5723 12.9642 46.2803 12.9682 46.0083 12.9762C45.7363 12.9762 45.5163 12.9842 45.3483 13.0002V12.7602C45.7563 12.7442 46.0163 12.6762 46.1283 12.5562C46.2403 12.4282 46.2163 12.1602 46.0563 11.7522L43.8243 5.78824L44.0163 5.63224L41.9283 11.0562C41.8003 11.3762 41.7243 11.6482 41.7003 11.8722C41.6763 12.0882 41.6963 12.2602 41.7603 12.3882C41.8323 12.5162 41.9483 12.6082 42.1083 12.6642C42.2763 12.7202 42.4843 12.7522 42.7323 12.7602V13.0002C42.5083 12.9842 42.2723 12.9762 42.0243 12.9762C41.7843 12.9682 41.5603 12.9642 41.3523 12.9642C41.1523 12.9642 40.9803 12.9682 40.8363 12.9762C40.7003 12.9762 40.5723 12.9842 40.4523 13.0002V12.7602C40.6123 12.7202 40.7763 12.6282 40.9443 12.4842C41.1123 12.3322 41.2643 12.0762 41.4003 11.7162L44.2203 4.44424C44.2523 4.44424 44.2843 4.44424 44.3163 4.44424C44.3483 4.44424 44.3803 4.44424 44.4123 4.44424ZM45.8763 9.54424V9.78424H42.3003L42.4203 9.54424H45.8763ZM52.8469 4.37224C53.2469 4.37224 53.5509 4.42024 53.7589 4.51624C53.9669 4.60424 54.1509 4.70424 54.3109 4.81624C54.4069 4.87224 54.4829 4.91624 54.5389 4.94824C54.6029 4.97224 54.6629 4.98424 54.7189 4.98424C54.7989 4.98424 54.8549 4.94024 54.8869 4.85224C54.9269 4.76424 54.9589 4.63224 54.9829 4.45624H55.2589C55.2509 4.59224 55.2389 4.75624 55.2229 4.94824C55.2149 5.13224 55.2069 5.38024 55.1989 5.69224C55.1989 5.99624 55.1989 6.40024 55.1989 6.90424H54.9229C54.8989 6.52024 54.8149 6.15224 54.6709 5.80024C54.5269 5.44824 54.3149 5.16024 54.0349 4.93624C53.7629 4.71224 53.4029 4.60024 52.9549 4.60024C52.5309 4.60024 52.1789 4.72824 51.8989 4.98424C51.6269 5.24024 51.4909 5.57624 51.4909 5.99224C51.4909 6.35224 51.5829 6.65624 51.7669 6.90424C51.9509 7.14424 52.1949 7.36424 52.4989 7.56424C52.8109 7.75624 53.1469 7.96424 53.5069 8.18824C53.9229 8.44424 54.2909 8.70024 54.6109 8.95624C54.9389 9.20424 55.1949 9.48024 55.3789 9.78424C55.5709 10.0882 55.6669 10.4562 55.6669 10.8882C55.6669 11.4002 55.5509 11.8242 55.3189 12.1602C55.0869 12.4962 54.7789 12.7482 54.3949 12.9162C54.0109 13.0842 53.5869 13.1682 53.1229 13.1682C52.6989 13.1682 52.3629 13.1202 52.1149 13.0242C51.8669 12.9282 51.6549 12.8282 51.4789 12.7242C51.3029 12.6122 51.1669 12.5562 51.0709 12.5562C50.9909 12.5562 50.9309 12.6002 50.8909 12.6882C50.8589 12.7762 50.8309 12.9082 50.8069 13.0842H50.5309C50.5469 12.9162 50.5549 12.7202 50.5549 12.4962C50.5629 12.2642 50.5669 11.9642 50.5669 11.5962C50.5749 11.2282 50.5789 10.7642 50.5789 10.2042H50.8549C50.8869 10.6842 50.9749 11.1322 51.1189 11.5482C51.2709 11.9642 51.4989 12.3002 51.8029 12.5562C52.1149 12.8042 52.5269 12.9282 53.0389 12.9282C53.3029 12.9282 53.5509 12.8762 53.7829 12.7722C54.0229 12.6602 54.2189 12.4882 54.3709 12.2562C54.5229 12.0162 54.5989 11.7082 54.5989 11.3322C54.5989 11.0042 54.5189 10.7202 54.3589 10.4802C54.2069 10.2322 53.9909 10.0042 53.7109 9.79624C53.4309 9.58024 53.1029 9.36024 52.7269 9.13624C52.3509 8.90424 51.9989 8.66824 51.6709 8.42824C51.3429 8.18824 51.0789 7.91224 50.8789 7.60024C50.6869 7.28024 50.5909 6.89624 50.5909 6.44824C50.5909 5.97624 50.6949 5.58824 50.9029 5.28424C51.1189 4.97224 51.3989 4.74424 51.7429 4.60024C52.0869 4.44824 52.4549 4.37224 52.8469 4.37224ZM61.0073 4.37224C61.4073 4.37224 61.7113 4.42024 61.9193 4.51624C62.1273 4.60424 62.3113 4.70424 62.4713 4.81624C62.5673 4.87224 62.6433 4.91624 62.6993 4.94824C62.7633 4.97224 62.8233 4.98424 62.8793 4.98424C62.9593 4.98424 63.0153 4.94024 63.0473 4.85224C63.0873 4.76424 63.1193 4.63224 63.1433 4.45624H63.4193C63.4113 4.59224 63.3993 4.75624 63.3833 4.94824C63.3753 5.13224 63.3673 5.38024 63.3593 5.69224C63.3593 5.99624 63.3593 6.40024 63.3593 6.90424H63.0833C63.0593 6.52024 62.9753 6.15224 62.8313 5.80024C62.6873 5.44824 62.4753 5.16024 62.1953 4.93624C61.9233 4.71224 61.5633 4.60024 61.1153 4.60024C60.6913 4.60024 60.3393 4.72824 60.0593 4.98424C59.7873 5.24024 59.6513 5.57624 59.6513 5.99224C59.6513 6.35224 59.7433 6.65624 59.9273 6.90424C60.1113 7.14424 60.3553 7.36424 60.6593 7.56424C60.9713 7.75624 61.3073 7.96424 61.6673 8.18824C62.0833 8.44424 62.4513 8.70024 62.7713 8.95624C63.0993 9.20424 63.3553 9.48024 63.5393 9.78424C63.7313 10.0882 63.8273 10.4562 63.8273 10.8882C63.8273 11.4002 63.7113 11.8242 63.4793 12.1602C63.2473 12.4962 62.9393 12.7482 62.5553 12.9162C62.1713 13.0842 61.7473 13.1682 61.2833 13.1682C60.8593 13.1682 60.5233 13.1202 60.2753 13.0242C60.0273 12.9282 59.8153 12.8282 59.6393 12.7242C59.4633 12.6122 59.3273 12.5562 59.2313 12.5562C59.1513 12.5562 59.0913 12.6002 59.0513 12.6882C59.0193 12.7762 58.9913 12.9082 58.9673 13.0842H58.6913C58.7073 12.9162 58.7153 12.7202 58.7153 12.4962C58.7233 12.2642 58.7273 11.9642 58.7273 11.5962C58.7353 11.2282 58.7393 10.7642 58.7393 10.2042H59.0153C59.0473 10.6842 59.1353 11.1322 59.2793 11.5482C59.4313 11.9642 59.6593 12.3002 59.9633 12.5562C60.2753 12.8042 60.6873 12.9282 61.1993 12.9282C61.4633 12.9282 61.7113 12.8762 61.9433 12.7722C62.1833 12.6602 62.3793 12.4882 62.5313 12.2562C62.6833 12.0162 62.7593 11.7082 62.7593 11.3322C62.7593 11.0042 62.6793 10.7202 62.5193 10.4802C62.3673 10.2322 62.1513 10.0042 61.8713 9.79624C61.5913 9.58024 61.2633 9.36024 60.8873 9.13624C60.5113 8.90424 60.1593 8.66824 59.8313 8.42824C59.5033 8.18824 59.2393 7.91224 59.0393 7.60024C58.8473 7.28024 58.7513 6.89624 58.7513 6.44824C58.7513 5.97624 58.8553 5.58824 59.0633 5.28424C59.2793 4.97224 59.5593 4.74424 59.9033 4.60024C60.2473 4.44824 60.6153 4.37224 61.0073 4.37224ZM76.0438 4.50424V4.74424C75.7718 4.75224 75.5638 4.78424 75.4198 4.84024C75.2838 4.88824 75.1918 4.98424 75.1438 5.12824C75.0958 5.26424 75.0718 5.48024 75.0718 5.77624V11.7282C75.0718 12.0162 75.0958 12.2322 75.1438 12.3762C75.1918 12.5202 75.2838 12.6162 75.4198 12.6642C75.5638 12.7122 75.7718 12.7442 76.0438 12.7602V13.0002C75.8598 12.9842 75.6278 12.9762 75.3478 12.9762C75.0758 12.9682 74.7998 12.9642 74.5198 12.9642C74.2078 12.9642 73.9158 12.9682 73.6438 12.9762C73.3718 12.9762 73.1518 12.9842 72.9838 13.0002V12.7602C73.2558 12.7442 73.4598 12.7122 73.5958 12.6642C73.7398 12.6162 73.8358 12.5202 73.8838 12.3762C73.9318 12.2322 73.9558 12.0162 73.9558 11.7282V5.12824L74.0038 5.16424L71.0638 13.0602H70.8718L67.8478 5.27224V11.6082C67.8478 11.8962 67.8718 12.1242 67.9198 12.2922C67.9758 12.4522 68.0798 12.5682 68.2318 12.6402C68.3918 12.7042 68.6278 12.7442 68.9398 12.7602V13.0002C68.7958 12.9842 68.6078 12.9762 68.3758 12.9762C68.1438 12.9682 67.9238 12.9642 67.7158 12.9642C67.5158 12.9642 67.3118 12.9682 67.1038 12.9762C66.9038 12.9762 66.7358 12.9842 66.5998 13.0002V12.7602C66.8718 12.7442 67.0758 12.7042 67.2118 12.6402C67.3558 12.5682 67.4518 12.4522 67.4998 12.2922C67.5478 12.1242 67.5718 11.8962 67.5718 11.6082V5.77624C67.5718 5.48024 67.5478 5.26424 67.4998 5.12824C67.4518 4.98424 67.3558 4.88824 67.2118 4.84024C67.0758 4.78424 66.8718 4.75224 66.5998 4.74424V4.50424C66.7358 4.51224 66.9038 4.52024 67.1038 4.52824C67.3118 4.53624 67.5158 4.54024 67.7158 4.54024C67.8918 4.54024 68.0718 4.53624 68.2558 4.52824C68.4478 4.52024 68.6078 4.51224 68.7358 4.50424L71.4598 11.6802L71.2558 11.7762L73.9558 4.54024C74.0518 4.54024 74.1438 4.54024 74.2318 4.54024C74.3278 4.54024 74.4238 4.54024 74.5198 4.54024C74.7998 4.54024 75.0758 4.53624 75.3478 4.52824C75.6278 4.52024 75.8598 4.51224 76.0438 4.50424ZM81.7929 4.50424V4.74424C81.5209 4.75224 81.3129 4.78424 81.1689 4.84024C81.0329 4.88824 80.9409 4.98424 80.8929 5.12824C80.8449 5.26424 80.8209 5.48024 80.8209 5.77624V11.7282C80.8209 12.0162 80.8449 12.2322 80.8929 12.3762C80.9409 12.5202 81.0329 12.6162 81.1689 12.6642C81.3129 12.7122 81.5209 12.7442 81.7929 12.7602V13.0002C81.6089 12.9842 81.3769 12.9762 81.0969 12.9762C80.8249 12.9682 80.5489 12.9642 80.2689 12.9642C79.9569 12.9642 79.6649 12.9682 79.3929 12.9762C79.1209 12.9762 78.9009 12.9842 78.7329 13.0002V12.7602C79.0049 12.7442 79.2089 12.7122 79.3449 12.6642C79.4889 12.6162 79.5849 12.5202 79.6329 12.3762C79.6809 12.2322 79.7049 12.0162 79.7049 11.7282V5.77624C79.7049 5.48024 79.6809 5.26424 79.6329 5.12824C79.5849 4.98424 79.4889 4.88824 79.3449 4.84024C79.2089 4.78424 79.0049 4.75224 78.7329 4.74424V4.50424C78.9009 4.51224 79.1209 4.52024 79.3929 4.52824C79.6649 4.53624 79.9569 4.54024 80.2689 4.54024C80.5489 4.54024 80.8249 4.53624 81.0969 4.52824C81.3769 4.52024 81.6089 4.51224 81.7929 4.50424ZM84.4793 4.50424C84.6473 4.51224 84.8673 4.52024 85.1393 4.52824C85.4113 4.53624 85.6793 4.54024 85.9433 4.54024C86.3193 4.54024 86.6793 4.53624 87.0233 4.52824C87.3673 4.52024 87.6113 4.51624 87.7553 4.51624C88.4033 4.51624 88.9393 4.60824 89.3633 4.79224C89.7953 4.97624 90.1153 5.22824 90.3233 5.54824C90.5393 5.86024 90.6473 6.21224 90.6473 6.60424C90.6473 6.84424 90.5993 7.10024 90.5033 7.37224C90.4073 7.64424 90.2393 7.90024 89.9993 8.14024C89.7673 8.38024 89.4473 8.58024 89.0393 8.74024C88.6313 8.89224 88.1153 8.96824 87.4913 8.96824H86.3393V8.72824H87.3713C87.9393 8.72824 88.3713 8.64024 88.6673 8.46424C88.9713 8.28024 89.1753 8.04024 89.2793 7.74424C89.3913 7.44024 89.4473 7.10424 89.4473 6.73624C89.4473 6.10424 89.2953 5.61624 88.9913 5.27224C88.6953 4.92024 88.1833 4.74424 87.4553 4.74424C87.0873 4.74424 86.8473 4.81224 86.7353 4.94824C86.6233 5.08424 86.5673 5.36024 86.5673 5.77624V11.7282C86.5673 12.0162 86.5913 12.2322 86.6393 12.3762C86.6873 12.5202 86.7793 12.6162 86.9153 12.6642C87.0593 12.7122 87.2673 12.7442 87.5393 12.7602V13.0002C87.3553 12.9842 87.1233 12.9762 86.8433 12.9762C86.5713 12.9682 86.2953 12.9642 86.0153 12.9642C85.7033 12.9642 85.4113 12.9682 85.1393 12.9762C84.8673 12.9762 84.6473 12.9842 84.4793 13.0002V12.7602C84.7513 12.7442 84.9553 12.7122 85.0913 12.6642C85.2353 12.6162 85.3313 12.5202 85.3793 12.3762C85.4273 12.2322 85.4513 12.0162 85.4513 11.7282V5.77624C85.4513 5.48024 85.4273 5.26424 85.3793 5.12824C85.3313 4.98424 85.2353 4.88824 85.0913 4.84024C84.9553 4.78424 84.7513 4.75224 84.4793 4.74424V4.50424ZM86.3873 8.76424C86.8193 8.78024 87.1593 8.80024 87.4073 8.82424C87.6553 8.84024 87.8553 8.85624 88.0073 8.87224C88.1673 8.88824 88.3193 8.90824 88.4633 8.93224C88.9993 9.02024 89.3833 9.18424 89.6153 9.42424C89.8553 9.65624 90.0313 10.0202 90.1433 10.5162L90.4433 11.7402C90.5233 12.0922 90.6033 12.3482 90.6833 12.5082C90.7713 12.6602 90.9033 12.7322 91.0793 12.7242C91.2153 12.7162 91.3273 12.6722 91.4153 12.5922C91.5113 12.5122 91.6113 12.4042 91.7153 12.2682L91.8953 12.4002C91.7273 12.6482 91.5513 12.8402 91.3673 12.9762C91.1913 13.1042 90.9393 13.1682 90.6113 13.1682C90.3153 13.1682 90.0553 13.0802 89.8313 12.9042C89.6073 12.7282 89.4393 12.3842 89.3273 11.8722L89.0633 10.6722C88.9913 10.3282 88.9073 10.0322 88.8113 9.78424C88.7233 9.52824 88.5953 9.32824 88.4273 9.18424C88.2673 9.04024 88.0273 8.96824 87.7073 8.96824H86.4113L86.3873 8.76424Z" fill="#555248"/>
</svg>
