<svg width="167" height="22" viewBox="0 0 167 22" fill="none" xmlns="http://www.w3.org/2000/svg">
<path d="M19.7423 14.5604C22.4095 9.44984 28.2942 0.389771 30.4957 5.0342" stroke="white"/>
<path d="M2.525 14.9359C4.76407 9.62379 9.88594 0.111629 12.4609 4.55987" stroke="white"/>
<circle cx="4.93559" cy="11.9281" r="4.93559" fill="white"/>
<circle cx="18.0972" cy="11.9281" r="4.93559" fill="white"/>
<circle cx="18.0973" cy="11.9281" r="3.2904" fill="#444240"/>
<circle cx="4.93566" cy="11.9281" r="3.2904" fill="#444240"/>
<line x1="8.22607" y1="13.0733" x2="14.8069" y2="13.0733" stroke="white"/>
<path d="M43.64 5.17C44.29 5.17 44.815 5.27 45.215 5.47C45.615 5.66 45.99 5.885 46.34 6.145C46.47 6.245 46.57 6.295 46.64 6.295C46.83 6.295 46.955 5.99 47.015 5.38H47.36C47.34 5.75 47.325 6.2 47.315 6.73C47.305 7.26 47.3 7.96 47.3 8.83H46.955C46.885 8.41 46.8 8.005 46.7 7.615C46.6 7.225 46.435 6.89 46.205 6.61C45.915 6.24 45.535 5.955 45.065 5.755C44.595 5.545 44.11 5.44 43.61 5.44C43.11 5.44 42.655 5.565 42.245 5.815C41.845 6.055 41.5 6.405 41.21 6.865C40.92 7.325 40.695 7.88 40.535 8.53C40.385 9.17 40.31 9.895 40.31 10.705C40.31 12.505 40.6 13.825 41.18 14.665C41.76 15.495 42.66 15.91 43.88 15.91C44.24 15.91 44.55 15.86 44.81 15.76C45.08 15.65 45.29 15.545 45.44 15.445C45.63 15.315 45.75 15.195 45.8 15.085C45.85 14.965 45.875 14.81 45.875 14.62V13.18C45.875 12.77 45.835 12.465 45.755 12.265C45.675 12.065 45.525 11.93 45.305 11.86C45.095 11.79 44.78 11.75 44.36 11.74V11.44C44.54 11.45 44.75 11.46 44.99 11.47C45.23 11.47 45.48 11.475 45.74 11.485C46.01 11.485 46.255 11.485 46.475 11.485C46.805 11.485 47.1 11.48 47.36 11.47C47.63 11.46 47.855 11.45 48.035 11.44V11.74C47.815 11.75 47.65 11.785 47.54 11.845C47.43 11.905 47.355 12.025 47.315 12.205C47.285 12.385 47.27 12.66 47.27 13.03V16H46.97C46.96 15.83 46.92 15.645 46.85 15.445C46.79 15.245 46.695 15.145 46.565 15.145C46.505 15.145 46.445 15.16 46.385 15.19C46.325 15.22 46.22 15.29 46.07 15.4C45.74 15.65 45.39 15.85 45.02 16C44.65 16.14 44.22 16.21 43.73 16.21C42.7 16.21 41.815 16 41.075 15.58C40.345 15.15 39.785 14.535 39.395 13.735C39.005 12.935 38.81 11.98 38.81 10.87C38.81 9.7 39.02 8.69 39.44 7.84C39.86 6.99 40.43 6.335 41.15 5.875C41.88 5.405 42.71 5.17 43.64 5.17ZM55.1019 5.38V5.68C54.7619 5.69 54.5019 5.73 54.3219 5.8C54.1519 5.86 54.0369 5.98 53.9769 6.16C53.9169 6.33 53.8869 6.6 53.8869 6.97V14.41C53.8869 14.77 53.9169 15.04 53.9769 15.22C54.0369 15.4 54.1519 15.52 54.3219 15.58C54.5019 15.63 54.7619 15.655 55.1019 15.655H56.1969C56.6669 15.655 57.0469 15.605 57.3369 15.505C57.6369 15.405 57.8719 15.25 58.0419 15.04C58.2219 14.82 58.3569 14.53 58.4469 14.17C58.5369 13.81 58.6069 13.37 58.6569 12.85H59.0019C58.9719 13.16 58.9569 13.57 58.9569 14.08C58.9569 14.27 58.9619 14.545 58.9719 14.905C58.9919 15.255 59.0219 15.62 59.0619 16C58.5519 15.98 57.9769 15.97 57.3369 15.97C56.6969 15.96 56.1269 15.955 55.6269 15.955C55.4069 15.955 55.1219 15.955 54.7719 15.955C54.4319 15.955 54.0619 15.96 53.6619 15.97C53.2619 15.97 52.8569 15.975 52.4469 15.985C52.0369 15.985 51.6469 15.99 51.2769 16V15.7C51.6169 15.68 51.8719 15.64 52.0419 15.58C52.2219 15.52 52.3419 15.4 52.4019 15.22C52.4619 15.04 52.4919 14.77 52.4919 14.41V6.97C52.4919 6.6 52.4619 6.33 52.4019 6.16C52.3419 5.98 52.2219 5.86 52.0419 5.8C51.8719 5.73 51.6169 5.69 51.2769 5.68V5.38C51.4869 5.39 51.7619 5.4 52.1019 5.41C52.4419 5.42 52.8069 5.425 53.1969 5.425C53.5469 5.425 53.8919 5.42 54.2319 5.41C54.5819 5.4 54.8719 5.39 55.1019 5.38ZM66.4102 5.305L70.0702 14.74C70.2202 15.12 70.3902 15.375 70.5802 15.505C70.7702 15.625 70.9452 15.69 71.1052 15.7V16C70.9052 15.98 70.6602 15.97 70.3702 15.97C70.0802 15.96 69.7902 15.955 69.5002 15.955C69.1102 15.955 68.7452 15.96 68.4052 15.97C68.0652 15.97 67.7902 15.98 67.5802 16V15.7C68.0902 15.68 68.4152 15.595 68.5552 15.445C68.6952 15.285 68.6652 14.95 68.4652 14.44L65.6752 6.985L65.9152 6.79L63.3052 13.57C63.1452 13.97 63.0502 14.31 63.0202 14.59C62.9902 14.86 63.0152 15.075 63.0952 15.235C63.1852 15.395 63.3302 15.51 63.5302 15.58C63.7402 15.65 64.0002 15.69 64.3102 15.7V16C64.0302 15.98 63.7352 15.97 63.4252 15.97C63.1252 15.96 62.8452 15.955 62.5852 15.955C62.3352 15.955 62.1202 15.96 61.9402 15.97C61.7702 15.97 61.6102 15.98 61.4602 16V15.7C61.6602 15.65 61.8652 15.535 62.0752 15.355C62.2852 15.165 62.4752 14.845 62.6452 14.395L66.1702 5.305C66.2102 5.305 66.2502 5.305 66.2902 5.305C66.3302 5.305 66.3702 5.305 66.4102 5.305ZM68.2402 11.68V11.98H63.7702L63.9202 11.68H68.2402ZM76.9535 5.215C77.4535 5.215 77.8335 5.275 78.0935 5.395C78.3535 5.505 78.5835 5.63 78.7835 5.77C78.9035 5.84 78.9985 5.895 79.0685 5.935C79.1485 5.965 79.2235 5.98 79.2935 5.98C79.3935 5.98 79.4635 5.925 79.5035 5.815C79.5535 5.705 79.5935 5.54 79.6235 5.32H79.9685C79.9585 5.49 79.9435 5.695 79.9235 5.935C79.9135 6.165 79.9035 6.475 79.8935 6.865C79.8935 7.245 79.8935 7.75 79.8935 8.38H79.5485C79.5185 7.9 79.4135 7.44 79.2335 7C79.0535 6.56 78.7885 6.2 78.4385 5.92C78.0985 5.64 77.6485 5.5 77.0885 5.5C76.5585 5.5 76.1185 5.66 75.7685 5.98C75.4285 6.3 75.2585 6.72 75.2585 7.24C75.2585 7.69 75.3735 8.07 75.6035 8.38C75.8335 8.68 76.1385 8.955 76.5185 9.205C76.9085 9.445 77.3285 9.705 77.7785 9.985C78.2985 10.305 78.7585 10.625 79.1585 10.945C79.5685 11.255 79.8885 11.6 80.1185 11.98C80.3585 12.36 80.4785 12.82 80.4785 13.36C80.4785 14 80.3335 14.53 80.0435 14.95C79.7535 15.37 79.3685 15.685 78.8885 15.895C78.4085 16.105 77.8785 16.21 77.2985 16.21C76.7685 16.21 76.3485 16.15 76.0385 16.03C75.7285 15.91 75.4635 15.785 75.2435 15.655C75.0235 15.515 74.8535 15.445 74.7335 15.445C74.6335 15.445 74.5585 15.5 74.5085 15.61C74.4685 15.72 74.4335 15.885 74.4035 16.105H74.0585C74.0785 15.895 74.0885 15.65 74.0885 15.37C74.0985 15.08 74.1035 14.705 74.1035 14.245C74.1135 13.785 74.1185 13.205 74.1185 12.505H74.4635C74.5035 13.105 74.6135 13.665 74.7935 14.185C74.9835 14.705 75.2685 15.125 75.6485 15.445C76.0385 15.755 76.5535 15.91 77.1935 15.91C77.5235 15.91 77.8335 15.845 78.1235 15.715C78.4235 15.575 78.6685 15.36 78.8585 15.07C79.0485 14.77 79.1435 14.385 79.1435 13.915C79.1435 13.505 79.0435 13.15 78.8435 12.85C78.6535 12.54 78.3835 12.255 78.0335 11.995C77.6835 11.725 77.2735 11.45 76.8035 11.17C76.3335 10.88 75.8935 10.585 75.4835 10.285C75.0735 9.985 74.7435 9.64 74.4935 9.25C74.2535 8.85 74.1335 8.37 74.1335 7.81C74.1335 7.22 74.2635 6.735 74.5235 6.355C74.7935 5.965 75.1435 5.68 75.5735 5.5C76.0035 5.31 76.4635 5.215 76.9535 5.215ZM87.1541 5.215C87.6541 5.215 88.0341 5.275 88.2941 5.395C88.5541 5.505 88.7841 5.63 88.9841 5.77C89.1041 5.84 89.1991 5.895 89.2691 5.935C89.3491 5.965 89.4241 5.98 89.4941 5.98C89.5941 5.98 89.6641 5.925 89.7041 5.815C89.7541 5.705 89.7941 5.54 89.8241 5.32H90.1691C90.1591 5.49 90.1441 5.695 90.1241 5.935C90.1141 6.165 90.1041 6.475 90.0941 6.865C90.0941 7.245 90.0941 7.75 90.0941 8.38H89.7491C89.7191 7.9 89.6141 7.44 89.4341 7C89.2541 6.56 88.9891 6.2 88.6391 5.92C88.2991 5.64 87.8491 5.5 87.2891 5.5C86.7591 5.5 86.3191 5.66 85.9691 5.98C85.6291 6.3 85.4591 6.72 85.4591 7.24C85.4591 7.69 85.5741 8.07 85.8041 8.38C86.0341 8.68 86.3391 8.955 86.7191 9.205C87.1091 9.445 87.5291 9.705 87.9791 9.985C88.4991 10.305 88.9591 10.625 89.3591 10.945C89.7691 11.255 90.0891 11.6 90.3191 11.98C90.5591 12.36 90.6791 12.82 90.6791 13.36C90.6791 14 90.5341 14.53 90.2441 14.95C89.9541 15.37 89.5691 15.685 89.0891 15.895C88.6091 16.105 88.0791 16.21 87.4991 16.21C86.9691 16.21 86.5491 16.15 86.2391 16.03C85.9291 15.91 85.6641 15.785 85.4441 15.655C85.2241 15.515 85.0541 15.445 84.9341 15.445C84.8341 15.445 84.7591 15.5 84.7091 15.61C84.6691 15.72 84.6341 15.885 84.6041 16.105H84.2591C84.2791 15.895 84.2891 15.65 84.2891 15.37C84.2991 15.08 84.3041 14.705 84.3041 14.245C84.3141 13.785 84.3191 13.205 84.3191 12.505H84.6641C84.7041 13.105 84.8141 13.665 84.9941 14.185C85.1841 14.705 85.4691 15.125 85.8491 15.445C86.2391 15.755 86.7541 15.91 87.3941 15.91C87.7241 15.91 88.0341 15.845 88.3241 15.715C88.6241 15.575 88.8691 15.36 89.0591 15.07C89.2491 14.77 89.3441 14.385 89.3441 13.915C89.3441 13.505 89.2441 13.15 89.0441 12.85C88.8541 12.54 88.5841 12.255 88.2341 11.995C87.8841 11.725 87.4741 11.45 87.0041 11.17C86.5341 10.88 86.0941 10.585 85.6841 10.285C85.2741 9.985 84.9441 9.64 84.6941 9.25C84.4541 8.85 84.3341 8.37 84.3341 7.81C84.3341 7.22 84.4641 6.735 84.7241 6.355C84.9941 5.965 85.3441 5.68 85.7741 5.5C86.2041 5.31 86.6641 5.215 87.1541 5.215ZM105.95 5.38V5.68C105.61 5.69 105.35 5.73 105.17 5.8C105 5.86 104.885 5.98 104.825 6.16C104.765 6.33 104.735 6.6 104.735 6.97V14.41C104.735 14.77 104.765 15.04 104.825 15.22C104.885 15.4 105 15.52 105.17 15.58C105.35 15.64 105.61 15.68 105.95 15.7V16C105.72 15.98 105.43 15.97 105.08 15.97C104.74 15.96 104.395 15.955 104.045 15.955C103.655 15.955 103.29 15.96 102.95 15.97C102.61 15.97 102.335 15.98 102.125 16V15.7C102.465 15.68 102.72 15.64 102.89 15.58C103.07 15.52 103.19 15.4 103.25 15.22C103.31 15.04 103.34 14.77 103.34 14.41V6.16L103.4 6.205L99.7246 16.075H99.4846L95.7046 6.34V14.26C95.7046 14.62 95.7346 14.905 95.7946 15.115C95.8646 15.315 95.9946 15.46 96.1846 15.55C96.3846 15.63 96.6796 15.68 97.0696 15.7V16C96.8896 15.98 96.6546 15.97 96.3646 15.97C96.0746 15.96 95.7996 15.955 95.5396 15.955C95.2896 15.955 95.0346 15.96 94.7746 15.97C94.5246 15.97 94.3146 15.98 94.1446 16V15.7C94.4846 15.68 94.7396 15.63 94.9096 15.55C95.0896 15.46 95.2096 15.315 95.2696 15.115C95.3296 14.905 95.3596 14.62 95.3596 14.26V6.97C95.3596 6.6 95.3296 6.33 95.2696 6.16C95.2096 5.98 95.0896 5.86 94.9096 5.8C94.7396 5.73 94.4846 5.69 94.1446 5.68V5.38C94.3146 5.39 94.5246 5.4 94.7746 5.41C95.0346 5.42 95.2896 5.425 95.5396 5.425C95.7596 5.425 95.9846 5.42 96.2146 5.41C96.4546 5.4 96.6546 5.39 96.8146 5.38L100.22 14.35L99.9646 14.47L103.34 5.425C103.46 5.425 103.575 5.425 103.685 5.425C103.805 5.425 103.925 5.425 104.045 5.425C104.395 5.425 104.74 5.42 105.08 5.41C105.43 5.4 105.72 5.39 105.95 5.38ZM113.136 5.38V5.68C112.796 5.69 112.536 5.73 112.356 5.8C112.186 5.86 112.071 5.98 112.011 6.16C111.951 6.33 111.921 6.6 111.921 6.97V14.41C111.921 14.77 111.951 15.04 112.011 15.22C112.071 15.4 112.186 15.52 112.356 15.58C112.536 15.64 112.796 15.68 113.136 15.7V16C112.906 15.98 112.616 15.97 112.266 15.97C111.926 15.96 111.581 15.955 111.231 15.955C110.841 15.955 110.476 15.96 110.136 15.97C109.796 15.97 109.521 15.98 109.311 16V15.7C109.651 15.68 109.906 15.64 110.076 15.58C110.256 15.52 110.376 15.4 110.436 15.22C110.496 15.04 110.526 14.77 110.526 14.41V6.97C110.526 6.6 110.496 6.33 110.436 6.16C110.376 5.98 110.256 5.86 110.076 5.8C109.906 5.73 109.651 5.69 109.311 5.68V5.38C109.521 5.39 109.796 5.4 110.136 5.41C110.476 5.42 110.841 5.425 111.231 5.425C111.581 5.425 111.926 5.42 112.266 5.41C112.616 5.4 112.906 5.39 113.136 5.38ZM116.494 5.38C116.704 5.39 116.979 5.4 117.319 5.41C117.659 5.42 117.994 5.425 118.324 5.425C118.794 5.425 119.244 5.42 119.674 5.41C120.104 5.4 120.409 5.395 120.589 5.395C121.399 5.395 122.069 5.51 122.599 5.74C123.139 5.97 123.539 6.285 123.799 6.685C124.069 7.075 124.204 7.515 124.204 8.005C124.204 8.305 124.144 8.625 124.024 8.965C123.904 9.305 123.694 9.625 123.394 9.925C123.104 10.225 122.704 10.475 122.194 10.675C121.684 10.865 121.039 10.96 120.259 10.96H118.819V10.66H120.109C120.819 10.66 121.359 10.55 121.729 10.33C122.109 10.1 122.364 9.8 122.494 9.43C122.634 9.05 122.704 8.63 122.704 8.17C122.704 7.38 122.514 6.77 122.134 6.34C121.764 5.9 121.124 5.68 120.214 5.68C119.754 5.68 119.454 5.765 119.314 5.935C119.174 6.105 119.104 6.45 119.104 6.97V14.41C119.104 14.77 119.134 15.04 119.194 15.22C119.254 15.4 119.369 15.52 119.539 15.58C119.719 15.64 119.979 15.68 120.319 15.7V16C120.089 15.98 119.799 15.97 119.449 15.97C119.109 15.96 118.764 15.955 118.414 15.955C118.024 15.955 117.659 15.96 117.319 15.97C116.979 15.97 116.704 15.98 116.494 16V15.7C116.834 15.68 117.089 15.64 117.259 15.58C117.439 15.52 117.559 15.4 117.619 15.22C117.679 15.04 117.709 14.77 117.709 14.41V6.97C117.709 6.6 117.679 6.33 117.619 6.16C117.559 5.98 117.439 5.86 117.259 5.8C117.089 5.73 116.834 5.69 116.494 5.68V5.38ZM118.879 10.705C119.419 10.725 119.844 10.75 120.154 10.78C120.464 10.8 120.714 10.82 120.904 10.84C121.104 10.86 121.294 10.885 121.474 10.915C122.144 11.025 122.624 11.23 122.914 11.53C123.214 11.82 123.434 12.275 123.574 12.895L123.949 14.425C124.049 14.865 124.149 15.185 124.249 15.385C124.359 15.575 124.524 15.665 124.744 15.655C124.914 15.645 125.054 15.59 125.164 15.49C125.284 15.39 125.409 15.255 125.539 15.085L125.764 15.25C125.554 15.56 125.334 15.8 125.104 15.97C124.884 16.13 124.569 16.21 124.159 16.21C123.789 16.21 123.464 16.1 123.184 15.88C122.904 15.66 122.694 15.23 122.554 14.59L122.224 13.09C122.134 12.66 122.029 12.29 121.909 11.98C121.799 11.66 121.639 11.41 121.429 11.23C121.229 11.05 120.929 10.96 120.529 10.96H118.909L118.879 10.705Z" fill="white"/>
</svg>
