<svg width="17" height="16" viewBox="0 0 17 16" fill="none" xmlns="http://www.w3.org/2000/svg">
<path d="M15.9497 14.8638L12.1482 11.0172C13.0905 9.85475 13.6585 8.36576 13.6585 6.7429C13.6585 3.02043 10.6735 0 6.99465 0C3.3126 0 0.330811 3.02043 0.330811 6.7429C0.330811 10.4654 3.3126 13.4858 6.99465 13.4858C8.59849 13.4858 10.0668 12.9144 11.2156 11.9609L15.0171 15.8042C15.2752 16.0654 15.6915 16.0654 15.9497 15.8042C16.2079 15.5462 16.2079 15.1217 15.9497 14.8638ZM6.99465 12.1437C4.04836 12.1437 1.6539 9.72087 1.6539 6.7429C1.6539 3.76492 4.04836 1.33878 6.99465 1.33878C9.93771 1.33878 12.3354 3.76492 12.3354 6.7429C12.3354 9.72087 9.93771 12.1437 6.99465 12.1437Z" fill="#1B1A17"/>
</svg>
