<svg width="23" height="18" viewBox="0 0 23 18" fill="none" xmlns="http://www.w3.org/2000/svg">
<path d="M22.5675 2.38918C21.7693 2.73222 20.911 2.96407 20.0104 3.06852C20.9296 2.5346 21.6353 1.68955 21.9678 0.682817C21.1075 1.17718 20.1549 1.53577 19.1401 1.72905C18.3283 0.891167 17.1709 0.367432 15.8902 0.367432C13.4309 0.367432 11.4376 2.298 11.4376 4.67956C11.4376 5.01766 11.4766 5.34689 11.5528 5.6623C7.85197 5.4827 4.57095 3.76541 2.37471 1.15673C1.9914 1.79333 1.77184 2.53398 1.77184 3.3244C1.77184 4.82069 2.55763 6.14036 3.75277 6.91397C3.02287 6.89187 2.33619 6.6978 1.73582 6.37458C1.73496 6.39275 1.73496 6.41067 1.73496 6.4287C1.73496 8.51842 3.27004 10.2609 5.30686 10.6573C4.93354 10.7559 4.54025 10.808 4.1341 10.808C3.84689 10.808 3.56841 10.7817 3.29606 10.7311C3.86308 12.4443 5.50723 13.6912 7.45608 13.7261C5.93088 14.8829 4.0112 15.5719 1.92484 15.5719C1.56567 15.5719 1.21094 15.5514 0.862305 15.5118C2.83371 16.7353 5.17397 17.449 7.68887 17.449C15.879 17.449 20.3573 10.8783 20.3573 5.17934C20.3573 4.99246 20.3528 4.80686 20.3447 4.62193C21.2144 4.01345 21.9692 3.25416 22.5665 2.38921" fill="#5C5C50"/>
</svg>
